<svg width="500" height="500" viewBox="0 0 500 500" fill="none" xmlns="http://www.w3.org/2000/svg">
<g clip-path="url(#clip0_59_654)">
<mask id="mask0_59_654" style="mask-type:luminance" maskUnits="userSpaceOnUse" x="0" y="0" width="500" height="500">
<path d="M500 0H0V500H500V0Z" fill="white"/>
</mask>
<g mask="url(#mask0_59_654)">
<path d="M449.151 250C449.151 359.988 359.988 449.151 250 449.151C140.012 449.151 50.8491 359.988 50.8491 250C50.8491 140.012 140.012 50.8491 250 50.8491C359.988 50.8491 449.151 140.012 449.151 250Z" fill="#EE4452"/>
<path d="M247.51 304.652C261.264 304.652 272.409 315.797 272.409 329.551C272.409 343.306 261.264 354.451 247.51 354.451C233.756 354.451 222.611 343.306 222.611 329.551C222.611 315.797 233.756 304.652 247.51 304.652Z" fill="white"/>
<path d="M247.51 281.744C258.466 281.744 267.43 272.781 267.43 261.825V171.191C267.43 160.235 258.466 151.271 247.51 151.271C236.554 151.271 227.591 160.235 227.591 171.191V261.825C227.591 272.781 236.554 281.744 247.51 281.744Z" fill="white"/>
</g>
</g>
<defs>
<clipPath id="clip0_59_654">
<rect width="500" height="500" fill="white"/>
</clipPath>
</defs>
</svg>
