<svg width="825" height="614" viewBox="0 0 825 614" fill="none" xmlns="http://www.w3.org/2000/svg">
<path d="M824.435 539.574H0.406982V539.986H824.435V539.574Z" fill="#EBEBEB"/>
<path d="M741.868 566.091H687.284V566.503H741.868V566.091Z" fill="#EBEBEB"/>
<path d="M546.276 570.573H531.955V570.985H546.276V570.573Z" fill="#EBEBEB"/>
<path d="M685.636 550.797H654.01V551.209H685.636V550.797Z" fill="#EBEBEB"/>
<path d="M158.044 553.565H86.864V553.977H158.044V553.565Z" fill="#EBEBEB"/>
<path d="M183.16 553.565H172.728V553.977H183.16V553.565Z" fill="#EBEBEB"/>
<path d="M371.467 560.521H217.077V560.933H371.467V560.521Z" fill="#EBEBEB"/>
<path d="M390.997 466.07H72.7733C70.2804 466.066 67.891 465.073 66.1298 463.308C64.3686 461.544 63.3794 459.153 63.3794 456.66V9.328C63.4011 6.84936 64.3999 4.47938 66.1587 2.73284C67.9176 0.986293 70.2946 0.00424603 72.7733 0H390.997C393.492 0 395.886 0.991451 397.651 2.75624C399.415 4.52104 400.407 6.91461 400.407 9.4104V456.66C400.407 459.156 399.415 461.549 397.651 463.314C395.886 465.079 393.492 466.07 390.997 466.07ZM72.7733 0.329613C70.3897 0.333978 68.1051 1.28394 66.4211 2.971C64.7372 4.65805 63.7914 6.94433 63.7914 9.328V456.66C63.7914 459.044 64.7372 461.33 66.4211 463.017C68.1051 464.704 70.3897 465.654 72.7733 465.658H390.997C393.382 465.654 395.668 464.705 397.355 463.018C399.041 461.331 399.991 459.045 399.995 456.66V9.328C399.991 6.94282 399.041 4.65657 397.355 2.96999C395.668 1.28341 393.382 0.333969 390.997 0.329613H72.7733Z" fill="#EBEBEB"/>
<path d="M747.487 466.07H429.248C426.753 466.066 424.362 465.073 422.598 463.309C420.835 461.545 419.842 459.154 419.837 456.66V9.328C419.863 6.84786 420.866 4.4779 422.627 2.73181C424.389 0.985717 426.768 0.00419973 429.248 0H747.487C749.963 0.0085773 752.336 0.992541 754.091 2.73862C755.847 4.4847 756.843 6.85221 756.865 9.328V456.66C756.865 459.15 755.878 461.539 754.12 463.302C752.363 465.066 749.978 466.062 747.487 466.07ZM429.248 0.329613C426.863 0.333969 424.576 1.28341 422.89 2.96999C421.203 4.65657 420.254 6.94282 420.249 9.328V456.66C420.254 459.045 421.203 461.331 422.89 463.018C424.576 464.705 426.863 465.654 429.248 465.658H747.487C749.873 465.654 752.159 464.705 753.845 463.018C755.532 461.331 756.481 459.045 756.486 456.66V9.328C756.481 6.94282 755.532 4.65657 753.845 2.96999C752.159 1.28341 749.873 0.333969 747.487 0.329613H429.248Z" fill="#EBEBEB"/>
<path d="M378.735 269.506V62.5762L112.442 62.5762V269.506H378.735Z" fill="#E0E0E0"/>
<path d="M116.134 265.815L375.043 265.815V66.2683L116.134 66.2683V265.815Z" fill="#EBEBEB"/>
<path d="M242.062 102.311H240.414V130.13H242.062V102.311Z" fill="#E0E0E0"/>
<path d="M178.793 219.719H177.145V129.323H296.233V181.534H294.585V130.971H178.793V219.719Z" fill="#E0E0E0"/>
<path d="M330.414 209.831H328.766V182.358H265.859V208.875H264.211V180.709H330.414V209.831Z" fill="#E0E0E0"/>
<path d="M270.935 92.0933H211.54V112.546H270.935V92.0933Z" fill="#F5F5F5"/>
<path d="M324.596 141.156H267.985V163.372H324.596V141.156Z" fill="#F5F5F5"/>
<path d="M284.466 197.421H245.588V220.329H284.466V197.421Z" fill="#F5F5F5"/>
<path d="M350.421 201.129H308.775V218.532H350.421V201.129Z" fill="#F5F5F5"/>
<path d="M214.967 145.853H150.644V175.534H214.967V145.853Z" fill="#F5F5F5"/>
<path d="M198.503 208.875H157.434V230.563H198.503V208.875Z" fill="#F5F5F5"/>
<path d="M250.113 130.859L241.245 121.99L232.377 130.859L241.245 139.727L250.113 130.859Z" fill="#F5F5F5"/>
<path d="M304.295 181.518L295.427 172.65L286.558 181.518L295.427 190.387L304.295 181.518Z" fill="#F5F5F5"/>
<path d="M651.323 97.4331H487.193V105.871H651.323V97.4331Z" fill="#E0E0E0"/>
<path d="M501.977 66.3511H494.742V97.4334H501.977V66.3511Z" fill="#EBEBEB"/>
<path d="M536.948 66.3511H529.713V97.4334H536.948V66.3511Z" fill="#EBEBEB"/>
<path d="M576.643 65.5411L569.513 66.77L574.793 97.4007L581.923 96.1717L576.643 65.5411Z" fill="#EBEBEB"/>
<path d="M510.942 70.4375H503.707V97.4327H510.942V70.4375Z" fill="#EBEBEB"/>
<path d="M527.555 70.4375H520.32V97.4327H527.555V70.4375Z" fill="#EBEBEB"/>
<path d="M569.514 70.4375H562.279V97.4327H569.514V70.4375Z" fill="#EBEBEB"/>
<path d="M546.44 69.4685L539.377 71.0381L545.234 97.3903L552.296 95.8207L546.44 69.4685Z" fill="#EBEBEB"/>
<path d="M517.188 64.8018H513.579V97.4333H517.188V64.8018Z" fill="#EBEBEB"/>
<path d="M560.186 64.8018H556.577V97.4333H560.186V64.8018Z" fill="#EBEBEB"/>
<path d="M635.584 72.8276H600.349V97.1529H635.584V72.8276Z" fill="#EBEBEB"/>
<path d="M487.193 168.827L651.323 168.827V160.389L487.193 160.389V168.827Z" fill="#E0E0E0"/>
<path d="M636.54 160.389H643.775V129.306H636.54V160.389Z" fill="#EBEBEB"/>
<path d="M601.568 160.389H608.803V129.306H601.568V160.389Z" fill="#EBEBEB"/>
<path d="M556.61 159.149L563.74 160.378L569.02 129.747L561.89 128.518L556.61 159.149Z" fill="#EBEBEB"/>
<path d="M627.575 160.389H634.81V133.393H627.575V160.389Z" fill="#EBEBEB"/>
<path d="M610.946 160.389H618.181V133.393H610.946V160.389Z" fill="#EBEBEB"/>
<path d="M569.003 160.389H576.238V133.393H569.003V160.389Z" fill="#EBEBEB"/>
<path d="M586.247 158.787L593.31 160.356L599.166 134.004L592.104 132.435L586.247 158.787Z" fill="#EBEBEB"/>
<path d="M621.329 160.389H624.938V127.757H621.329V160.389Z" fill="#EBEBEB"/>
<path d="M578.331 160.389H581.94V127.757H578.331V160.389Z" fill="#EBEBEB"/>
<path d="M502.949 160.109H538.184V135.784H502.949V160.109Z" fill="#EBEBEB"/>
<path d="M615.379 210.177H523.319V538.371H615.379V210.177Z" fill="#F5F5F5"/>
<path d="M607.436 219.538H531.263V530.921H607.436V219.538Z" fill="#EBEBEB"/>
<path d="M593.559 228.701H545.123V231.914H593.559V228.701Z" fill="#E0E0E0"/>
<path d="M593.559 242.561H545.123V245.775H593.559V242.561Z" fill="#E0E0E0"/>
<path d="M593.559 256.438H545.123V259.652H593.559V256.438Z" fill="#E0E0E0"/>
<path d="M593.559 270.314H545.123V273.528H593.559V270.314Z" fill="#E0E0E0"/>
<path d="M593.559 284.191H545.123V287.405H593.559V284.191Z" fill="#E0E0E0"/>
<path d="M593.559 298.051H545.123V301.264H593.559V298.051Z" fill="#E0E0E0"/>
<path d="M593.559 311.927H545.123V315.141H593.559V311.927Z" fill="#E0E0E0"/>
<path d="M593.559 424.754H545.123V427.968H593.559V424.754Z" fill="#E0E0E0"/>
<path d="M593.559 438.63H545.123V441.844H593.559V438.63Z" fill="#E0E0E0"/>
<path d="M593.559 452.507H545.123V455.721H593.559V452.507Z" fill="#E0E0E0"/>
<path d="M593.559 466.367H545.123V469.581H593.559V466.367Z" fill="#E0E0E0"/>
<path d="M593.559 480.244H545.123V483.457H593.559V480.244Z" fill="#E0E0E0"/>
<path d="M593.559 494.121H545.123V497.334H593.559V494.121Z" fill="#E0E0E0"/>
<path d="M593.559 507.997H545.123V511.211H593.559V507.997Z" fill="#E0E0E0"/>
<path d="M595.949 359.425C595.949 360.484 595.635 361.519 595.046 362.4C594.457 363.281 593.621 363.968 592.642 364.373C591.664 364.778 590.587 364.885 589.548 364.678C588.509 364.471 587.554 363.961 586.805 363.212C586.056 362.463 585.546 361.508 585.339 360.469C585.133 359.43 585.239 358.354 585.644 357.375C586.049 356.396 586.736 355.56 587.617 354.971C588.498 354.383 589.533 354.068 590.592 354.068C591.296 354.066 591.994 354.203 592.645 354.472C593.296 354.74 593.887 355.135 594.385 355.632C594.883 356.13 595.277 356.721 595.545 357.372C595.814 358.023 595.951 358.721 595.949 359.425Z" fill="#E0E0E0"/>
<path d="M520.616 210.177H428.556V538.371H520.616V210.177Z" fill="#F5F5F5"/>
<path d="M512.673 219.538H436.5V530.921H512.673V219.538Z" fill="#EBEBEB"/>
<path d="M498.796 228.701H450.359V231.914H498.796V228.701Z" fill="#E0E0E0"/>
<path d="M498.796 242.561H450.359V245.775H498.796V242.561Z" fill="#E0E0E0"/>
<path d="M498.796 256.438H450.359V259.652H498.796V256.438Z" fill="#E0E0E0"/>
<path d="M498.796 270.314H450.359V273.528H498.796V270.314Z" fill="#E0E0E0"/>
<path d="M498.796 284.191H450.359V287.405H498.796V284.191Z" fill="#E0E0E0"/>
<path d="M498.796 298.051H450.359V301.264H498.796V298.051Z" fill="#E0E0E0"/>
<path d="M498.796 311.927H450.359V315.141H498.796V311.927Z" fill="#E0E0E0"/>
<path d="M498.796 424.754H450.359V427.968H498.796V424.754Z" fill="#E0E0E0"/>
<path d="M498.796 438.63H450.359V441.844H498.796V438.63Z" fill="#E0E0E0"/>
<path d="M498.796 452.507H450.359V455.721H498.796V452.507Z" fill="#E0E0E0"/>
<path d="M498.796 466.367H450.359V469.581H498.796V466.367Z" fill="#E0E0E0"/>
<path d="M498.796 480.244H450.359V483.457H498.796V480.244Z" fill="#E0E0E0"/>
<path d="M498.796 494.121H450.359V497.334H498.796V494.121Z" fill="#E0E0E0"/>
<path d="M498.796 507.997H450.359V511.211H498.796V507.997Z" fill="#E0E0E0"/>
<path d="M501.185 359.425C501.185 360.484 500.871 361.519 500.283 362.4C499.694 363.281 498.858 363.968 497.879 364.373C496.9 364.778 495.823 364.885 494.784 364.678C493.745 364.471 492.791 363.961 492.042 363.212C491.293 362.463 490.783 361.508 490.576 360.469C490.369 359.43 490.475 358.354 490.881 357.375C491.286 356.396 491.973 355.56 492.854 354.971C493.734 354.383 494.77 354.068 495.829 354.068C496.533 354.066 497.231 354.203 497.882 354.472C498.532 354.74 499.124 355.135 499.622 355.632C500.119 356.13 500.514 356.721 500.782 357.372C501.051 358.023 501.188 358.721 501.185 359.425Z" fill="#E0E0E0"/>
<path d="M710.142 210.177H618.082V538.371H710.142V210.177Z" fill="#F5F5F5"/>
<path d="M702.199 219.538H626.026V530.921H702.199V219.538Z" fill="#EBEBEB"/>
<path d="M688.322 228.701H639.886V231.914H688.322V228.701Z" fill="#E0E0E0"/>
<path d="M688.322 242.561H639.886V245.775H688.322V242.561Z" fill="#E0E0E0"/>
<path d="M688.322 256.438H639.886V259.652H688.322V256.438Z" fill="#E0E0E0"/>
<path d="M688.322 270.314H639.886V273.528H688.322V270.314Z" fill="#E0E0E0"/>
<path d="M688.322 284.191H639.886V287.405H688.322V284.191Z" fill="#E0E0E0"/>
<path d="M688.322 298.051H639.886V301.264H688.322V298.051Z" fill="#E0E0E0"/>
<path d="M688.322 311.927H639.886V315.141H688.322V311.927Z" fill="#E0E0E0"/>
<path d="M688.322 424.754H639.886V427.968H688.322V424.754Z" fill="#E0E0E0"/>
<path d="M688.322 438.63H639.886V441.844H688.322V438.63Z" fill="#E0E0E0"/>
<path d="M688.322 452.507H639.886V455.721H688.322V452.507Z" fill="#E0E0E0"/>
<path d="M688.322 466.367H639.886V469.581H688.322V466.367Z" fill="#E0E0E0"/>
<path d="M688.322 480.244H639.886V483.457H688.322V480.244Z" fill="#E0E0E0"/>
<path d="M688.322 494.121H639.886V497.334H688.322V494.121Z" fill="#E0E0E0"/>
<path d="M688.322 507.997H639.886V511.211H688.322V507.997Z" fill="#E0E0E0"/>
<path d="M690.712 359.425C690.712 360.484 690.398 361.519 689.809 362.4C689.221 363.281 688.384 363.968 687.405 364.373C686.427 364.778 685.35 364.885 684.311 364.678C683.272 364.471 682.317 363.961 681.568 363.212C680.819 362.463 680.309 361.508 680.102 360.469C679.896 359.43 680.002 358.354 680.407 357.375C680.813 356.396 681.499 355.56 682.38 354.971C683.261 354.383 684.296 354.068 685.356 354.068C686.06 354.066 686.757 354.203 687.408 354.472C688.059 354.74 688.65 355.135 689.148 355.632C689.646 356.13 690.04 356.721 690.309 357.372C690.577 358.023 690.714 358.721 690.712 359.425Z" fill="#E0E0E0"/>
<path d="M412.421 614C588.899 614 731.963 605.647 731.963 595.344C731.963 585.041 588.899 576.688 412.421 576.688C235.943 576.688 92.8796 585.041 92.8796 595.344C92.8796 605.647 235.943 614 412.421 614Z" fill="#F5F5F5"/>
<path d="M155.176 573.079C155.176 573.079 146.491 532.059 162.296 509.843C178.1 487.627 148.023 509.596 144.562 530.394C144.562 530.394 139.371 493.198 154.698 467.043C170.025 440.888 141.349 462.363 138.91 489.308C138.91 489.308 134.213 456.149 141.266 437.493C148.32 418.837 136.042 430.901 131.378 442.536C126.714 454.172 132.845 483.161 132.845 483.161C132.845 483.161 120.55 429.649 108.915 433.901C97.2797 438.153 126.302 473.223 130.34 491.451C130.34 491.451 116.611 466.911 106.196 472.02C95.78 477.129 122.33 479.667 134.476 516.271L138.745 533.427C138.745 533.427 126.088 509.25 117.831 516.847C109.574 524.445 142.305 537.679 149.919 574.381L155.176 573.079Z" fill="#6FBE20"/>
<path d="M153.478 575.435C153.478 575.435 151.649 523.719 126.104 501.833C100.559 479.947 143.129 497.268 153.478 521.148C153.478 521.148 148.617 475.003 122.446 448.288C96.2744 421.573 137.047 438.713 148.007 470.273C148.007 470.273 143.738 429.072 129.746 408.916C115.754 388.76 134.015 399.39 143.129 411.981C152.242 424.572 153.478 461.077 153.478 461.077C153.478 461.077 152.259 393.325 167.47 394.957C182.682 396.588 158.34 447.233 158.95 470.273C158.95 470.273 168.08 436.784 182.023 439.8C195.965 442.816 164.982 453.776 161.34 501.223V523.044C161.34 523.044 169.25 490.264 181.413 496.955C193.576 503.646 158.34 529.207 160.12 575.435H153.478Z" fill="#6FBE20"/>
<path opacity="0.2" d="M153.478 575.435C153.478 575.435 151.649 523.719 126.104 501.833C100.559 479.947 143.129 497.268 153.478 521.148C153.478 521.148 148.617 475.003 122.446 448.288C96.2744 421.573 137.047 438.713 148.007 470.273C148.007 470.273 143.738 429.072 129.746 408.916C115.754 388.76 134.015 399.39 143.129 411.981C152.242 424.572 153.478 461.077 153.478 461.077C153.478 461.077 152.259 393.325 167.47 394.957C182.682 396.588 158.34 447.233 158.95 470.273C158.95 470.273 168.08 436.784 182.023 439.8C195.965 442.816 164.982 453.776 161.34 501.223V523.044C161.34 523.044 169.25 490.264 181.413 496.955C193.576 503.646 158.34 529.207 160.12 575.435H153.478Z" fill="white"/>
<path d="M118.787 572.42H193.905V580.528C193.905 585.336 191.995 589.947 188.595 593.347C185.195 596.747 180.584 598.657 175.776 598.657H136.915C132.107 598.657 127.496 596.747 124.096 593.347C120.697 589.947 118.787 585.336 118.787 580.528V572.42Z" fill="#263238"/>
<path d="M108.948 568.085V573.82C108.952 575.662 109.687 577.427 110.991 578.727C112.295 580.028 114.061 580.759 115.903 580.759H196.806C198.646 580.759 200.411 580.027 201.712 578.726C203.013 577.425 203.744 575.66 203.744 573.82V568.085H108.948Z" fill="#263238"/>
<path opacity="0.2" d="M108.948 568.085V573.82C108.952 575.662 109.687 577.427 110.991 578.727C112.295 580.028 114.061 580.759 115.903 580.759H196.806C198.646 580.759 200.411 580.027 201.712 578.726C203.013 577.425 203.744 575.66 203.744 573.82V568.085H108.948Z" fill="white"/>
<path d="M691.618 566.437C691.892 565.876 692.027 565.256 692.01 564.632C691.993 564.007 691.825 563.396 691.52 562.85C691.216 562.305 690.784 561.841 690.262 561.498C689.739 561.156 689.142 560.945 688.52 560.883C689.056 559.29 689.093 557.571 688.624 555.957C688.156 554.343 687.205 552.91 685.899 551.852C685.587 551.561 685.187 551.382 684.762 551.341C684.308 551.389 683.882 551.579 683.543 551.885L676.291 557.076C675.709 557.436 675.218 557.927 674.857 558.51C673.374 561.377 678.714 565.102 676.505 567.409C675.879 568.085 674.857 568.233 674.066 568.728C672.418 569.799 672.138 572.172 671.331 574.035C670.523 575.897 667.738 577.331 666.667 575.683C667.458 573.903 665.019 572.386 663.107 572.123C661.195 571.859 659.135 571.793 658.064 569.964C655.311 572.386 649.131 565.646 649.263 562.943C648.175 563.14 647.176 563.671 646.405 564.463C645.634 565.255 645.129 566.267 644.962 567.36C644.645 569.598 644.568 571.863 644.731 574.117C644.731 578.517 643.248 582.819 643.314 587.202C643.314 590.63 644.698 594.421 647.829 595.789C649.379 596.352 651.031 596.577 652.675 596.448L688.306 596.217C689.162 596.283 690.021 596.141 690.811 595.805C692.459 594.965 692.772 592.855 692.92 591.042C693.546 583.297 694.184 575.556 694.832 567.821L691.618 566.437Z" fill="#2AB2AF"/>
<path opacity="0.3" d="M691.618 566.437C691.892 565.876 692.027 565.256 692.01 564.632C691.993 564.007 691.825 563.396 691.52 562.85C691.216 562.305 690.784 561.841 690.262 561.498C689.739 561.156 689.142 560.945 688.52 560.883C689.056 559.29 689.093 557.571 688.624 555.957C688.156 554.343 687.205 552.91 685.899 551.852C685.587 551.561 685.187 551.382 684.762 551.341C684.308 551.389 683.882 551.579 683.543 551.885L676.291 557.076C675.709 557.436 675.218 557.927 674.857 558.51C673.374 561.377 678.714 565.102 676.505 567.409C675.879 568.085 674.857 568.233 674.066 568.728C672.418 569.799 672.138 572.172 671.331 574.035C670.523 575.897 667.738 577.331 666.667 575.683C667.458 573.903 665.019 572.386 663.107 572.123C661.195 571.859 659.135 571.793 658.064 569.964C655.311 572.386 649.131 565.646 649.263 562.943C648.175 563.14 647.176 563.671 646.405 564.463C645.634 565.255 645.129 566.267 644.962 567.36C644.645 569.598 644.568 571.863 644.731 574.117C644.731 578.517 643.248 582.819 643.314 587.202C643.314 590.63 644.698 594.421 647.829 595.789C649.379 596.352 651.031 596.577 652.675 596.448L688.306 596.217C689.162 596.283 690.021 596.141 690.811 595.805C692.459 594.965 692.772 592.855 692.92 591.042C693.546 583.297 694.184 575.556 694.832 567.821L691.618 566.437Z" fill="white"/>
<path d="M693.695 528.779H638.419L638.864 534.366L639.194 538.355L640.034 548.737L640.512 554.687L641.155 562.63L641.419 566.025L641.518 567.047L641.847 571.052L642.276 576.523L642.556 579.935L642.836 583.396L643.166 587.384L643.413 590.417L643.693 593.828L643.808 595.295H694.552L694.667 593.828L694.931 590.433L695.178 587.384L695.508 583.379L695.788 579.935L696.068 576.523L696.513 571.035L696.826 567.047L696.909 566.025L697.189 562.63L697.832 554.687L698.31 548.737L699.15 538.355L699.463 534.366L699.925 528.779H693.695ZM696.991 532.438L695.92 531.367H697.09L696.991 532.438ZM696.727 535.833L696.612 537.184L691.668 542.129L685.999 536.459L691.091 531.367H692.278L696.727 535.833ZM695.294 553.517L691.668 557.142L685.999 551.473L691.684 545.804L695.607 549.726L695.294 553.517ZM642.688 549.726L646.61 545.804L652.279 551.473L646.61 557.142L642.984 553.517L642.688 549.726ZM689.839 543.958L684.153 549.644L678.483 543.958L684.153 538.289L689.839 543.958ZM680.906 531.367H687.399L684.103 534.663L680.906 531.367ZM682.307 551.473L676.654 557.142L670.968 551.473L676.654 545.804L682.307 551.473ZM663.47 558.972L669.139 553.319L674.808 558.972L669.139 564.657L663.47 558.972ZM667.293 566.487L661.624 572.173L655.954 566.503L661.64 560.818L667.293 566.487ZM676.654 560.818L682.307 566.503L676.654 572.173L670.968 566.487L676.654 560.818ZM669.139 549.644L663.47 543.958L669.139 538.289L674.808 543.958L669.139 549.644ZM667.293 551.473L661.64 557.142L655.954 551.473L661.64 545.804L667.293 551.473ZM654.109 549.644L648.439 543.958L654.109 538.289L659.794 543.958L654.109 549.644ZM654.109 553.319L659.794 558.972L654.109 564.657L648.439 558.972L654.109 553.319ZM659.794 574.002L654.109 579.671L648.439 574.002L654.109 568.333L659.794 574.002ZM661.624 575.848L667.293 581.517L661.64 587.203L655.954 581.517L661.624 575.848ZM663.47 574.002L669.139 568.333L674.808 574.002L669.139 579.671L663.47 574.002ZM676.654 575.848L682.307 581.517L676.654 587.203L670.968 581.517L676.654 575.848ZM684.186 583.412L689.872 589.098L686.196 592.773H682.192L678.516 589.098L684.186 583.412ZM678.516 574.068L684.186 568.399L689.872 574.068L684.186 579.737L678.516 574.068ZM678.516 559.038L684.186 553.385L689.872 559.038L684.186 564.723L678.516 559.038ZM682.34 536.525L676.687 542.211L671.001 536.542L676.077 531.449H677.28L682.34 536.525ZM669.155 534.696L665.859 531.4H672.336L669.155 534.696ZM667.31 536.525L661.673 542.211L655.987 536.542L661.063 531.449H662.267L667.31 536.525ZM657.421 531.433L654.125 534.729L650.829 531.433H657.421ZM647.269 531.433L652.345 536.525L646.643 542.211L641.699 537.267L641.6 535.915L646.033 531.449L647.269 531.433ZM642.325 531.433L641.27 532.487L641.188 531.433H642.325ZM641.979 541.321L644.748 544.09L642.391 546.463L641.979 541.321ZM643.528 560.34L643.297 557.653L644.748 559.104L643.528 560.34ZM643.792 563.768L646.594 560.949L652.263 566.635L646.594 572.304L644.303 570.014L643.792 563.768ZM644.632 574.266V574.018L644.748 574.134L644.632 574.266ZM645.621 586.346L644.913 577.644L646.561 575.996L652.23 581.665L646.561 587.335L645.588 586.362L645.621 586.346ZM646.149 592.839L646.033 591.537L646.594 590.993L648.423 592.839H646.149ZM648.423 589.164L654.092 583.478L659.778 589.164L656.103 592.839H652.098L648.423 589.164ZM659.778 592.839L661.624 590.993L663.453 592.839H659.778ZM667.128 592.839L663.453 589.164L669.122 583.478L674.792 589.164L671.166 592.707L667.128 592.839ZM674.792 592.839L676.638 590.993L678.483 592.839H674.792ZM692.096 592.839H689.806L691.651 590.993L692.195 591.537L692.096 592.839ZM692.624 586.346L691.651 587.318L685.999 581.517L691.684 575.848L693.332 577.496L692.624 586.346ZM693.629 574.002V574.266L693.514 574.134L693.662 574.002H693.629ZM693.942 570.014L691.651 572.304L685.999 566.503L691.684 560.818L694.486 563.636L693.942 570.014ZM694.733 560.356L693.481 559.104L694.948 557.653L694.733 560.356ZM696.282 541.305L695.854 546.479L693.481 544.09L696.282 541.305Z" fill="#2AB2AF"/>
<g opacity="0.6">
<path d="M693.695 528.779H638.419L638.864 534.366L639.194 538.355L640.034 548.737L640.512 554.687L641.155 562.63L641.419 566.025L641.518 567.047L641.847 571.052L642.276 576.523L642.556 579.935L642.836 583.396L643.166 587.384L643.413 590.417L643.693 593.828L643.808 595.295H694.552L694.667 593.828L694.931 590.433L695.178 587.384L695.508 583.379L695.788 579.935L696.068 576.523L696.513 571.035L696.826 567.047L696.909 566.025L697.189 562.63L697.832 554.687L698.31 548.737L699.15 538.355L699.463 534.366L699.925 528.779H693.695ZM696.991 532.438L695.92 531.367H697.09L696.991 532.438ZM696.727 535.833L696.612 537.184L691.668 542.129L685.999 536.459L691.091 531.367H692.278L696.727 535.833ZM695.294 553.517L691.668 557.142L685.999 551.473L691.684 545.804L695.607 549.726L695.294 553.517ZM642.688 549.726L646.61 545.804L652.279 551.473L646.61 557.142L642.984 553.517L642.688 549.726ZM689.839 543.958L684.153 549.644L678.483 543.958L684.153 538.289L689.839 543.958ZM680.906 531.367H687.399L684.103 534.663L680.906 531.367ZM682.307 551.473L676.654 557.142L670.968 551.473L676.654 545.804L682.307 551.473ZM663.47 558.972L669.139 553.319L674.808 558.972L669.139 564.657L663.47 558.972ZM667.293 566.487L661.624 572.173L655.954 566.503L661.64 560.818L667.293 566.487ZM676.654 560.818L682.307 566.503L676.654 572.173L670.968 566.487L676.654 560.818ZM669.139 549.644L663.47 543.958L669.139 538.289L674.808 543.958L669.139 549.644ZM667.293 551.473L661.64 557.142L655.954 551.473L661.64 545.804L667.293 551.473ZM654.109 549.644L648.439 543.958L654.109 538.289L659.794 543.958L654.109 549.644ZM654.109 553.319L659.794 558.972L654.109 564.657L648.439 558.972L654.109 553.319ZM659.794 574.002L654.109 579.671L648.439 574.002L654.109 568.333L659.794 574.002ZM661.624 575.848L667.293 581.517L661.64 587.203L655.954 581.517L661.624 575.848ZM663.47 574.002L669.139 568.333L674.808 574.002L669.139 579.671L663.47 574.002ZM676.654 575.848L682.307 581.517L676.654 587.203L670.968 581.517L676.654 575.848ZM684.186 583.412L689.872 589.098L686.196 592.773H682.192L678.516 589.098L684.186 583.412ZM678.516 574.068L684.186 568.399L689.872 574.068L684.186 579.737L678.516 574.068ZM678.516 559.038L684.186 553.385L689.872 559.038L684.186 564.723L678.516 559.038ZM682.34 536.525L676.687 542.211L671.001 536.542L676.077 531.449H677.28L682.34 536.525ZM669.155 534.696L665.859 531.4H672.336L669.155 534.696ZM667.31 536.525L661.673 542.211L655.987 536.542L661.063 531.449H662.267L667.31 536.525ZM657.421 531.433L654.125 534.729L650.829 531.433H657.421ZM647.269 531.433L652.345 536.525L646.643 542.211L641.699 537.267L641.6 535.915L646.033 531.449L647.269 531.433ZM642.325 531.433L641.27 532.487L641.188 531.433H642.325ZM641.979 541.321L644.748 544.09L642.391 546.463L641.979 541.321ZM643.528 560.34L643.297 557.653L644.748 559.104L643.528 560.34ZM643.792 563.768L646.594 560.949L652.263 566.635L646.594 572.304L644.303 570.014L643.792 563.768ZM644.632 574.266V574.018L644.748 574.134L644.632 574.266ZM645.621 586.346L644.913 577.644L646.561 575.996L652.23 581.665L646.561 587.335L645.588 586.362L645.621 586.346ZM646.149 592.839L646.033 591.537L646.594 590.993L648.423 592.839H646.149ZM648.423 589.164L654.092 583.478L659.778 589.164L656.103 592.839H652.098L648.423 589.164ZM659.778 592.839L661.624 590.993L663.453 592.839H659.778ZM667.128 592.839L663.453 589.164L669.122 583.478L674.792 589.164L671.166 592.707L667.128 592.839ZM674.792 592.839L676.638 590.993L678.483 592.839H674.792ZM692.096 592.839H689.806L691.651 590.993L692.195 591.537L692.096 592.839ZM692.624 586.346L691.651 587.318L685.999 581.517L691.684 575.848L693.332 577.496L692.624 586.346ZM693.629 574.002V574.266L693.514 574.134L693.662 574.002H693.629ZM693.942 570.014L691.651 572.304L685.999 566.503L691.684 560.818L694.486 563.636L693.942 570.014ZM694.733 560.356L693.481 559.104L694.948 557.653L694.733 560.356ZM696.282 541.305L695.854 546.479L693.481 544.09L696.282 541.305Z" fill="white"/>
</g>
<path d="M637.578 533.69H700.765C702.257 533.69 703.468 532.48 703.468 530.987V529.158C703.468 527.665 702.257 526.455 700.765 526.455H637.578C636.086 526.455 634.875 527.665 634.875 529.158V530.987C634.875 532.48 636.086 533.69 637.578 533.69Z" fill="#2AB2AF"/>
<path d="M695.821 591.405H642.523C641.03 591.405 639.82 592.615 639.82 594.108V595.937C639.82 597.43 641.03 598.64 642.523 598.64H695.821C697.313 598.64 698.524 597.43 698.524 595.937V594.108C698.524 592.615 697.313 591.405 695.821 591.405Z" fill="#2AB2AF"/>
<path d="M605.128 562.383L559.18 557.867V506.052H540.969V557.851L494.824 562.383C492.613 562.6 490.563 563.631 489.07 565.275C487.577 566.92 486.75 569.061 486.748 571.282V578.188H613.171V571.282C613.17 569.066 612.347 566.93 610.861 565.286C609.375 563.642 607.333 562.607 605.128 562.383Z" fill="#263238"/>
<path opacity="0.1" d="M605.128 562.383L559.18 557.867V506.052H540.969V557.851L494.824 562.383C492.613 562.6 490.563 563.631 489.07 565.275C487.577 566.92 486.75 569.061 486.748 571.282V578.188H613.171V571.282C613.17 569.066 612.347 566.93 610.861 565.286C609.375 563.642 607.333 562.607 605.128 562.383Z" fill="white"/>
<path d="M491.627 598.64C498.198 598.64 503.525 593.312 503.525 586.741C503.525 580.169 498.198 574.842 491.627 574.842C485.055 574.842 479.728 580.169 479.728 586.741C479.728 593.312 485.055 598.64 491.627 598.64Z" fill="#263238"/>
<path d="M608.325 598.64C614.897 598.64 620.224 593.312 620.224 586.741C620.224 580.169 614.897 574.842 608.325 574.842C601.754 574.842 596.427 580.169 596.427 586.741C596.427 593.312 601.754 598.64 608.325 598.64Z" fill="#263238"/>
<path d="M537.838 462.412H562.394V513.106C562.394 514.911 561.677 516.642 560.401 517.919C559.124 519.195 557.393 519.912 555.588 519.912H544.727C542.922 519.912 541.191 519.195 539.914 517.919C538.638 516.642 537.921 514.911 537.921 513.106V462.412H537.838Z" fill="#263238"/>
<path opacity="0.2" d="M537.838 462.412H562.394V513.106C562.394 514.911 561.677 516.642 560.401 517.919C559.124 519.195 557.393 519.912 555.588 519.912H544.727C542.922 519.912 541.191 519.195 539.914 517.919C538.638 516.642 537.921 514.911 537.921 513.106V462.412H537.838Z" fill="white"/>
<path d="M613.665 362.572C613.665 362.572 600.019 447.744 573.106 462.395H600.464C600.464 462.395 627.509 433.439 635.749 362.572H613.665Z" fill="#263238"/>
<path opacity="0.1" d="M613.665 362.572C613.665 362.572 600.019 447.744 573.106 462.395H600.464C600.464 462.395 627.509 433.439 635.749 362.572H613.665Z" fill="white"/>
<path d="M609.792 469.02H487.127V458.621C487.127 456.435 487.996 454.339 489.541 452.794C491.086 451.249 493.182 450.381 495.368 450.381H601.552C603.737 450.381 605.833 451.249 607.379 452.794C608.924 454.339 609.792 456.435 609.792 458.621V469.02Z" fill="#2AB2AF"/>
<path d="M485.331 469.02H611.589C613.418 469.02 614.901 467.537 614.901 465.707V463.005C614.901 461.175 613.418 459.692 611.589 459.692H485.331C483.501 459.692 482.018 461.175 482.018 463.005V465.707C482.018 467.537 483.501 469.02 485.331 469.02Z" fill="#263238"/>
<path opacity="0.6" d="M485.331 469.02H611.589C613.418 469.02 614.901 467.537 614.901 465.707V463.005C614.901 461.175 613.418 459.692 611.589 459.692H485.331C483.501 459.692 482.018 461.175 482.018 463.005V465.707C482.018 467.537 483.501 469.02 485.331 469.02Z" fill="white"/>
<path d="M638.979 379.894H595.124C582.286 379.894 573.947 369.593 576.501 356.821L579.913 339.862C582.451 327.156 594.943 316.79 607.782 316.79H651.62C664.475 316.79 672.814 327.09 670.259 339.862L666.848 356.821C664.293 369.593 651.818 379.894 638.979 379.894Z" fill="#2AB2AF"/>
<path d="M416.904 322.838L405.548 316.427C403.776 314.995 401.684 314.012 399.451 313.559C393.183 313.456 386.92 313.947 380.745 315.026C379.097 315.669 379.69 328.903 380.745 329.117C381.8 329.331 398.198 329.529 399.665 329.117C401.132 328.705 404.708 324.7 404.708 324.7L413.13 330.337L416.904 322.838Z" fill="#EBB376"/>
<path d="M468.29 305.105C462.324 310.445 443.569 332.809 440.636 333.616C437.702 334.424 410.279 317.136 410.279 317.136L406.389 328.029C406.389 328.029 432.198 349.273 440.636 350.74C449.782 352.388 480.272 327.667 480.272 327.667L468.29 305.105Z" fill="#2AB2AF"/>
<path opacity="0.5" d="M480.271 327.667C480.271 327.667 473.399 333.237 465.159 338.906C456.094 345.169 445.382 351.58 440.619 350.739C432.164 349.289 406.356 328.046 406.356 328.046L410.245 317.152C410.245 317.152 437.702 334.407 440.619 333.632C443.536 332.858 462.307 310.461 468.24 305.121L476.085 319.855L480.271 327.667Z" fill="white"/>
<path opacity="0.2" d="M480.271 327.667C480.271 327.667 473.399 333.237 465.159 338.906C466.56 331.144 472.888 323.349 476.085 319.838L480.271 327.667Z" fill="black"/>
<path d="M497.345 374.998C497.345 374.998 469.641 326.579 468.29 305.104C468.29 305.104 477.799 287.52 490.275 283.68C502.751 279.84 535.778 282.032 535.778 282.032C535.778 282.032 561.9 308.829 576.04 369.791L497.345 374.998Z" fill="#2AB2AF"/>
<path opacity="0.7" d="M497.345 374.998C497.345 374.998 469.641 326.579 468.29 305.104C468.29 305.104 477.799 287.52 490.275 283.68C502.751 279.84 535.778 282.032 535.778 282.032C535.778 282.032 561.9 308.829 576.04 369.791L497.345 374.998Z" fill="white"/>
<path opacity="0.1" d="M516.891 318.916L533.306 315.059L539.288 330.238L532.976 336.978L522.692 333.616L516.891 318.916Z" fill="black"/>
<path d="M512.013 582.258L497.939 584.879L485.446 553.516L499.504 550.912L512.013 582.258Z" fill="#EBB376"/>
<path opacity="0.2" d="M499.504 550.912L485.463 553.533L492.599 571.463L506.409 568.184L499.504 550.912Z" fill="black"/>
<path d="M362.336 587.631L350.619 579.424L364.265 548.556L375.966 556.763L362.336 587.631Z" fill="#EBB376"/>
<path opacity="0.2" d="M375.966 556.763L364.265 548.572L356.469 566.222L368.467 573.787L375.966 556.763Z" fill="black"/>
<path d="M558.126 422.644L513.216 436.405L423.628 463.895C402.978 511.853 377.68 561.987 377.68 561.987L354.245 552.362C354.245 552.362 379.476 468.163 386.843 447.117C398.61 413.53 524.324 391.083 524.324 391.083L558.126 422.644Z" fill="#263238"/>
<path d="M376.51 570.788L347.652 558.296L351.41 545.111L382.789 559.433L376.51 570.788Z" fill="#2AB2AF"/>
<path opacity="0.2" d="M376.51 570.788L347.652 558.296L351.41 545.111L382.789 559.433L376.51 570.788Z" fill="white"/>
<path d="M348.822 578.584C348.822 578.584 348.658 578.419 348.658 578.402L348.476 578.221L348.674 578.386C348.773 578.188 350.767 574.661 350.025 572.832C349.931 572.602 349.785 572.397 349.599 572.231C349.414 572.066 349.193 571.944 348.954 571.876C348.691 571.775 348.402 571.765 348.132 571.849C347.863 571.933 347.63 572.105 347.471 572.337C346.988 573.47 346.918 574.735 347.273 575.914C346.317 574.711 345.114 573.508 344.109 573.458C343.896 573.458 343.686 573.509 343.497 573.606C343.308 573.704 343.145 573.845 343.021 574.018C342.79 574.266 342.633 574.573 342.569 574.906C342.505 575.238 342.536 575.582 342.659 575.897C343.153 576.699 343.929 577.287 344.834 577.545C346.006 578.028 347.227 578.382 348.476 578.6H348.592H348.69L348.822 578.584ZM348.015 572.782C348.13 572.618 348.328 572.453 348.789 572.601H348.938C349.059 572.654 349.168 572.731 349.259 572.827C349.35 572.923 349.42 573.037 349.465 573.161C349.927 574.249 349.119 576.375 348.542 577.611C348.488 577.514 348.427 577.421 348.361 577.331C347.73 575.899 347.608 574.294 348.015 572.782ZM343.202 575.65C343.137 575.447 343.127 575.23 343.173 575.021C343.22 574.812 343.321 574.62 343.466 574.463C343.523 574.375 343.601 574.303 343.693 574.254C343.786 574.205 343.889 574.181 343.994 574.183C344.999 574.183 346.696 576.276 347.784 577.908C345.312 577.348 343.631 576.524 343.202 575.65Z" fill="#407BFF"/>
<path d="M350.454 577.413L365.155 583.84C365.28 583.888 365.395 583.96 365.492 584.052C365.589 584.144 365.667 584.255 365.721 584.378C365.775 584.501 365.803 584.633 365.805 584.767C365.807 584.901 365.782 585.034 365.732 585.159L361.331 597.124C361.063 597.731 360.568 598.209 359.952 598.455C359.336 598.701 358.648 598.697 358.035 598.442C352.943 596.118 350.635 594.75 344.191 591.85C340.22 590.103 332.21 587.038 327.167 583.791C322.124 580.544 325.519 575.649 327.892 576.572C333.644 578.748 342.889 578.451 347.85 577.166C348.721 576.953 349.639 577.04 350.454 577.413Z" fill="#263238"/>
<path d="M496.192 583.412C496.192 583.165 495.945 579.111 494.461 577.825C494.227 577.653 493.96 577.531 493.676 577.469C493.392 577.406 493.098 577.404 492.813 577.463C492.52 577.482 492.242 577.598 492.022 577.792C491.802 577.985 491.651 578.246 491.594 578.534C491.649 579.765 492.146 580.935 492.995 581.83C491.805 581.124 490.404 580.861 489.039 581.088C488.844 581.182 488.676 581.324 488.549 581.499C488.423 581.675 488.342 581.879 488.314 582.094C488.224 582.417 488.225 582.76 488.318 583.083C488.411 583.406 488.593 583.697 488.841 583.923C489.651 584.431 490.62 584.619 491.561 584.45C492.826 584.343 494.075 584.095 495.285 583.709C495.304 583.716 495.323 583.72 495.343 583.72C495.363 583.72 495.382 583.716 495.401 583.709C495.401 583.709 495.401 583.709 495.401 583.61C495.401 583.511 495.747 583.527 495.763 583.478H496.06L496.192 583.412ZM492.253 578.666C492.253 578.468 492.385 578.237 492.846 578.155H493.011C493.143 578.147 493.276 578.166 493.401 578.212C493.526 578.257 493.64 578.327 493.736 578.418C494.643 579.177 494.89 581.434 494.956 582.786L494.659 582.621C493.411 581.632 492.557 580.229 492.253 578.666ZM489.336 583.412C489.188 583.26 489.081 583.073 489.026 582.868C488.971 582.663 488.97 582.447 489.023 582.242C489.029 582.136 489.065 582.033 489.126 581.946C489.187 581.859 489.271 581.79 489.369 581.748C490.275 581.319 492.665 582.374 494.445 583.313C491.923 583.972 490.045 584.005 489.336 583.412Z" fill="#407BFF"/>
<path d="M496.472 581.764L512.491 580.758C512.623 580.745 512.757 580.757 512.884 580.796C513.011 580.834 513.129 580.897 513.232 580.981C513.335 581.065 513.42 581.169 513.482 581.287C513.544 581.404 513.583 581.532 513.595 581.665L515.243 594.289C515.284 594.954 515.062 595.609 514.624 596.112C514.186 596.614 513.568 596.924 512.903 596.975C507.316 597.222 504.663 597.074 497.576 597.453C493.258 597.717 484.721 598.64 478.755 598.063C472.789 597.486 473.515 591.586 476.102 591.306C482.216 590.614 490.308 586.131 494.132 582.719C494.786 582.153 495.608 581.818 496.472 581.764Z" fill="#263238"/>
<path d="M469.938 291.409C472.391 290.543 475.066 290.543 477.519 291.409C478.082 293.806 479.431 295.946 481.352 297.487C483.272 299.028 485.654 299.882 488.116 299.913C489.332 299.975 490.551 299.925 491.758 299.765C504.102 298.117 502.751 279.708 502.751 279.708C498.251 280.029 493.761 278.953 489.896 276.626C486.616 274.701 483.752 272.14 481.474 269.094L469.938 291.409Z" fill="#EBB376"/>
<path opacity="0.2" d="M469.938 291.409C472.391 290.543 475.066 290.543 477.519 291.409C478.082 293.806 479.431 295.946 481.352 297.487C483.272 299.028 485.654 299.882 488.116 299.913C491.297 292.052 490.885 283.053 489.896 276.626C486.616 274.701 483.752 272.14 481.474 269.094L469.938 291.409Z" fill="black"/>
<path d="M461.335 250.834C467.433 253.471 466.148 260.146 455.765 272.259C449.585 266.771 446.388 254.427 449.733 250.538C453.079 246.648 456.012 248.543 461.335 250.834Z" fill="#263238"/>
<path d="M486.468 256.487C488.38 269.803 490.16 277.5 484.936 285.625C477.058 297.837 459.588 295.183 453.721 282.691C448.481 271.484 446.223 251.592 458.006 243.715C460.596 241.968 463.588 240.911 466.7 240.643C469.811 240.376 472.94 240.906 475.79 242.185C478.639 243.464 481.115 245.448 482.984 247.951C484.853 250.454 486.052 253.392 486.468 256.487Z" fill="#EBB376"/>
<path d="M467.581 264.167C467.812 265.238 467.417 266.211 466.708 266.359C465.999 266.507 465.274 265.766 465.06 264.711C464.846 263.656 465.208 262.651 465.917 262.503C466.625 262.354 467.285 263.129 467.581 264.167Z" fill="#263238"/>
<path d="M455.419 266.705C455.649 267.76 455.254 268.748 454.562 268.897C453.87 269.045 453.111 268.303 452.914 267.249C452.716 266.194 453.079 265.189 453.787 265.057C454.496 264.925 455.27 265.634 455.419 266.705Z" fill="#263238"/>
<path d="M459.49 266.375C458.893 269.913 457.812 273.351 456.276 276.593C457.118 276.963 458.031 277.144 458.95 277.124C459.87 277.104 460.774 276.883 461.599 276.478L459.49 266.375Z" fill="#D58745"/>
<path d="M478.821 245.923C473.102 249.302 475.228 255.812 487.061 266.392C492.5 260.146 494.115 247.489 490.358 244.078C486.6 240.666 483.815 242.99 478.821 245.923Z" fill="#263238"/>
<path d="M494.906 265.716C494.652 269.09 493.07 272.226 490.506 274.434C487.078 277.318 483.518 274.714 482.908 270.512C482.364 266.721 483.485 260.623 487.671 259.404C491.857 258.184 495.203 261.579 494.906 265.716Z" fill="#EBB376"/>
<path d="M473.036 257.871C472.944 257.955 472.832 258.012 472.71 258.038C472.589 258.064 472.463 258.058 472.344 258.02C471.538 257.712 470.67 257.598 469.811 257.687C468.953 257.776 468.127 258.065 467.4 258.531C467.258 258.642 467.078 258.692 466.898 258.671C466.719 258.649 466.556 258.557 466.444 258.415C466.333 258.273 466.282 258.093 466.304 257.913C466.326 257.734 466.418 257.571 466.56 257.459C467.458 256.856 468.487 256.475 469.562 256.349C470.637 256.223 471.726 256.355 472.74 256.734C472.824 256.76 472.902 256.803 472.969 256.86C473.036 256.916 473.091 256.986 473.131 257.064C473.171 257.142 473.195 257.228 473.201 257.316C473.208 257.403 473.196 257.491 473.168 257.575C473.14 257.68 473.096 257.78 473.036 257.871Z" fill="#263238"/>
<path d="M448.81 261.151C448.673 261.131 448.546 261.067 448.447 260.969C448.351 260.82 448.316 260.638 448.35 260.463C448.383 260.288 448.483 260.133 448.629 260.03C449.525 259.423 450.555 259.04 451.63 258.914C452.706 258.788 453.796 258.922 454.809 259.305C454.892 259.339 454.966 259.389 455.029 259.453C455.091 259.517 455.14 259.592 455.173 259.676C455.205 259.759 455.22 259.848 455.217 259.937C455.214 260.026 455.193 260.114 455.155 260.195C455.083 260.359 454.949 260.487 454.782 260.552C454.615 260.617 454.429 260.613 454.265 260.541C453.447 260.256 452.573 260.168 451.715 260.282C450.856 260.397 450.036 260.711 449.321 261.2C449.237 261.227 449.148 261.237 449.06 261.229C448.972 261.22 448.887 261.194 448.81 261.151Z" fill="#263238"/>
<path d="M488.858 245.56C488.858 245.56 491.791 239.726 484.078 234.667C476.366 229.607 453.029 233.562 444.673 244.143C436.318 254.724 443.569 261.167 443.569 261.167C443.217 259.416 443.491 257.596 444.344 256.025C445.218 257.801 446.631 259.255 448.381 260.179C451.035 261.365 449.271 260.986 449.271 260.986C449.159 258.198 450.061 255.464 451.809 253.29C453.815 255.255 456.253 256.723 458.929 257.575C459.511 255.274 460.881 253.25 462.802 251.856C462.802 251.856 464.252 256.52 466.477 256.965C466.477 256.965 466.279 253.158 471.421 250.373C471.421 250.373 471.998 253.998 473.448 254.954C473.498 255.086 475.953 246.879 488.858 245.56Z" fill="#263238"/>
<path d="M465.027 280.961C464.91 280.961 464.795 280.926 464.697 280.862C464.627 280.82 464.566 280.764 464.517 280.697C464.469 280.631 464.434 280.555 464.416 280.475C464.398 280.395 464.395 280.312 464.41 280.231C464.424 280.151 464.455 280.073 464.5 280.005C466.416 277.278 469.208 275.289 472.41 274.368C472.487 274.343 472.568 274.334 472.649 274.341C472.729 274.349 472.807 274.372 472.878 274.411C472.949 274.449 473.012 274.502 473.061 274.566C473.111 274.629 473.148 274.702 473.168 274.78C473.215 274.938 473.198 275.107 473.121 275.252C473.044 275.397 472.913 275.505 472.756 275.555C469.847 276.404 467.306 278.202 465.538 280.664C465.486 280.754 465.412 280.828 465.322 280.88C465.232 280.932 465.131 280.96 465.027 280.961Z" fill="#263238"/>
<path d="M465.604 271.929C464.125 271.795 462.734 271.166 461.657 270.143C460.58 269.12 459.88 267.763 459.671 266.293C458.979 262.651 460.923 259.206 464.005 258.613C467.087 258.02 470.153 260.525 470.845 264.167C471.186 265.849 470.93 267.598 470.12 269.111C469.756 269.803 469.244 270.405 468.62 270.875C467.996 271.346 467.275 271.672 466.51 271.83C466.211 271.889 465.908 271.922 465.604 271.929ZM464.912 259.404C464.665 259.379 464.417 259.379 464.17 259.404C461.566 259.898 459.918 262.881 460.528 265.996C461.121 269.16 463.725 271.369 466.345 270.858C466.987 270.725 467.591 270.45 468.113 270.054C468.634 269.657 469.061 269.149 469.361 268.567C470.076 267.23 470.298 265.684 469.988 264.2C469.817 262.934 469.223 261.764 468.3 260.881C467.378 259.998 466.183 259.454 464.912 259.338V259.404Z" fill="#263238"/>
<path d="M451.43 274.319C450.17 274.301 448.957 273.84 448.002 273.017C446.691 271.901 445.811 270.362 445.514 268.666C444.822 265.024 446.766 261.596 449.848 261.003C450.619 260.871 451.409 260.912 452.161 261.123C452.913 261.334 453.61 261.709 454.199 262.222C455.51 263.332 456.39 264.866 456.688 266.557C457.02 268.239 456.764 269.985 455.963 271.501C455.599 272.191 455.087 272.791 454.462 273.259C453.838 273.726 453.118 274.049 452.353 274.204C452.051 274.275 451.741 274.313 451.43 274.319ZM446.371 268.518C446.628 270.007 447.397 271.36 448.546 272.341C449.031 272.772 449.608 273.086 450.233 273.258C450.858 273.431 451.514 273.458 452.151 273.337C452.787 273.216 453.388 272.95 453.906 272.56C454.424 272.171 454.846 271.667 455.139 271.089C455.835 269.738 456.06 268.192 455.776 266.699C455.492 265.205 454.717 263.85 453.573 262.849C453.083 262.419 452.503 262.104 451.876 261.927C451.248 261.75 450.589 261.716 449.947 261.827C447.327 262.321 445.695 265.304 446.305 268.419L446.371 268.518Z" fill="#263238"/>
<path d="M456.259 267.068C456.165 267.068 456.073 267.039 455.996 266.985C455.949 266.951 455.911 266.908 455.881 266.859C455.852 266.81 455.833 266.755 455.825 266.698C455.818 266.641 455.822 266.583 455.837 266.528C455.852 266.473 455.878 266.421 455.913 266.376C456.45 265.755 457.194 265.351 458.007 265.239C458.82 265.127 459.645 265.314 460.33 265.766C460.426 265.827 460.495 265.923 460.522 266.033C460.55 266.143 460.534 266.26 460.478 266.359C460.45 266.411 460.411 266.456 460.364 266.491C460.317 266.527 460.263 266.552 460.206 266.566C460.149 266.58 460.089 266.582 460.031 266.572C459.973 266.562 459.918 266.54 459.869 266.508C459.362 266.17 458.752 266.024 458.148 266.097C457.543 266.169 456.985 266.455 456.573 266.903C456.535 266.951 456.488 266.991 456.434 267.019C456.38 267.048 456.32 267.064 456.259 267.068Z" fill="#263238"/>
<path d="M470.416 264.628C470.321 264.627 470.228 264.594 470.154 264.535C470.079 264.475 470.026 264.392 470.004 264.299C469.974 264.19 469.988 264.073 470.044 263.974C470.099 263.875 470.192 263.802 470.301 263.771L482.661 260.31C482.775 260.284 482.894 260.302 482.995 260.36C483.095 260.418 483.171 260.512 483.205 260.624C483.231 260.735 483.212 260.852 483.154 260.95C483.096 261.048 483.002 261.12 482.892 261.151L470.532 264.612L470.416 264.628Z" fill="#263238"/>
<path opacity="0.2" d="M513.216 436.405L423.628 463.895C423.628 463.895 420.332 439.174 436.466 427.638C460.033 410.728 512.013 405.999 512.013 405.999C512.013 405.999 512.656 420.699 513.216 436.405Z" fill="black"/>
<path d="M495.269 407.976L498.73 386.304L497.345 374.999L576.04 369.741L577.227 382.349C577.227 382.349 586.588 426.583 580.094 438.581C568.558 460.005 520.764 459.165 479.25 459.165C488.265 485.534 506.36 552.28 506.36 552.28L484.655 562.168C484.655 562.168 442.778 485.995 433.269 453.017C424.913 423.896 465.637 415.162 495.269 407.976Z" fill="#263238"/>
<path d="M511.288 558.246L482.167 570.096L475.377 558.197L507.58 545.803L511.288 558.246Z" fill="#2AB2AF"/>
<path opacity="0.2" d="M511.288 558.246L482.167 570.096L475.377 558.197L507.58 545.803L511.288 558.246Z" fill="white"/>
<path d="M551.369 383.156L578.183 381.558L576.568 371.604L550.347 373.285L551.369 383.156Z" fill="black"/>
<path d="M501.795 376.383L497.345 376.68L498.73 386.305L502.57 386.074L501.795 376.383Z" fill="black"/>
<path d="M505.717 385.893L548.221 383.355L547.43 373.466L504.712 376.202L505.717 385.893Z" fill="black"/>
<path d="M518.21 386.024C517.284 386.027 516.392 385.681 515.71 385.054C515.029 384.428 514.609 383.568 514.534 382.645L514.221 379.053C514.134 378.087 514.431 377.127 515.049 376.38C515.666 375.633 516.553 375.16 517.517 375.064L525.148 374.405C525.633 374.358 526.122 374.41 526.587 374.557C527.051 374.704 527.481 374.944 527.851 375.262C528.22 375.574 528.523 375.956 528.744 376.386C528.965 376.816 529.098 377.285 529.136 377.767L529.449 381.36C529.494 381.845 529.44 382.334 529.293 382.798C529.146 383.262 528.908 383.692 528.592 384.063C528.284 384.437 527.903 384.745 527.472 384.969C527.042 385.192 526.571 385.327 526.087 385.365L518.457 386.007L518.21 386.024ZM525.527 376.037H525.362L517.732 376.696C517.464 376.717 517.202 376.79 516.963 376.913C516.724 377.036 516.511 377.205 516.338 377.41C516.165 377.616 516.034 377.854 515.954 378.11C515.873 378.367 515.844 378.637 515.869 378.904L516.166 382.513C516.215 383.053 516.476 383.551 516.891 383.898C517.306 384.241 517.837 384.412 518.374 384.376L526.005 383.717C526.275 383.694 526.537 383.618 526.777 383.493C527.018 383.369 527.231 383.198 527.406 382.991C527.75 382.577 527.921 382.046 527.884 381.508L527.571 377.915C527.548 377.646 527.472 377.383 527.347 377.143C527.223 376.902 527.052 376.689 526.845 376.515C526.478 376.201 526.01 376.031 525.527 376.037Z" fill="white"/>
<path d="M523.632 381.031C523.433 381.029 523.241 380.957 523.09 380.827C522.939 380.698 522.839 380.518 522.808 380.322C522.78 380.106 522.839 379.887 522.971 379.714C523.104 379.541 523.3 379.428 523.517 379.399L526.664 378.97C526.772 378.952 526.882 378.955 526.988 378.98C527.094 379.005 527.194 379.051 527.282 379.116C527.37 379.181 527.443 379.262 527.499 379.356C527.554 379.45 527.59 379.554 527.604 379.663C527.632 379.881 527.574 380.101 527.441 380.277C527.309 380.453 527.113 380.569 526.895 380.602L523.731 381.031H523.632Z" fill="white"/>
<path opacity="0.2" d="M495.598 306.917C495.598 306.917 503.575 335.116 513.216 354.2C513.216 354.2 498.037 325.903 492.368 304.099L495.598 306.917Z" fill="black"/>
<path d="M496.01 312.175L500.114 306.818H502.323L505.47 310.114L505.783 313.872C501.911 315.602 496.01 313.872 496.01 313.872V312.175Z" fill="#407BFF"/>
<path d="M499.949 308.186C499.862 301.342 499.123 294.521 497.741 287.816L499.949 288.772C502.036 295.5 502.786 302.571 502.158 309.587L499.949 308.186Z" fill="#2AB2AF"/>
<path d="M497.164 312.34C497.164 312.34 481.656 306.209 480.173 296.156L479.085 298.051C479.085 298.051 482.777 310.758 499.092 313.905L497.164 312.34Z" fill="#2AB2AF"/>
<path d="M503.624 311.384C505.208 311.13 506.706 310.494 507.989 309.533C509.273 308.571 510.303 307.311 510.991 305.863C514.666 297.408 510.991 284.998 520.088 279.494L525.197 281.307C522.352 283.474 520.274 286.494 519.264 289.926C517.418 297.012 515.325 314.548 503.624 313.889V311.384Z" fill="#2AB2AF"/>
<path d="M499.966 276.643L492.368 295.299L491.758 299.765L486.369 297.194L477.684 292.019C477.684 292.019 473.828 297.408 480.271 305.813L486.369 300.77L494.923 310.148L497.345 298.611L507.316 301.825C507.316 301.825 511.304 285.114 511.304 280.334L499.966 276.643Z" fill="#2AB2AF"/>
<path opacity="0.6" d="M511.304 280.335C511.304 285.147 507.3 301.875 507.3 301.875L497.312 298.661L494.906 310.197L486.353 300.82L480.255 305.863C473.811 297.458 477.651 292.069 477.651 292.069L486.353 297.244L491.742 299.815L492.352 295.348L499.933 276.692L511.304 280.335Z" fill="white"/>
<path opacity="0.2" d="M507.316 301.874L497.329 298.66L494.923 310.147L494.395 295.71L507.316 301.874Z" fill="black"/>
<path opacity="0.2" d="M494.923 310.148L486.369 300.77L480.271 305.813L484.622 298.035L494.923 310.148Z" fill="black"/>
<path d="M453.392 328.161L440.619 326.727C438.848 325.292 436.756 324.308 434.521 323.859C428.249 323.75 421.98 324.236 415.799 325.31C414.151 325.952 414.745 339.186 415.799 339.417C416.854 339.648 433.252 339.829 434.736 339.417C436.219 339.005 439.779 335 439.779 335L450.969 336.978L453.392 328.161Z" fill="#EBB376"/>
<path d="M535.778 281.983C530.504 283.054 506.113 329.381 506.113 329.381L443.339 326.315L442.399 337.061C442.399 337.061 498.647 349.306 511.321 346.949C523.994 344.592 546.853 305.039 548.221 300.688C551.336 290.783 539.321 281.258 535.778 281.983Z" fill="#2AB2AF"/>
<path opacity="0.6" d="M535.778 281.983C530.504 283.054 506.113 329.381 506.113 329.381L443.339 326.315L442.399 337.061C442.399 337.061 498.647 349.306 511.321 346.949C523.994 344.592 546.853 305.039 548.221 300.688C551.336 290.783 539.321 281.258 535.778 281.983Z" fill="white"/>
<path d="M190.066 342.614V337.225H186.456L190.066 335.116H187.363L190.972 332.759H194.4V330.04H190.428L194.4 328.458V322.574H190.428V318.734H186.456L190.428 317.399V314.663H187.577L189.901 312.34L191.928 310.312H253.532V313.081H257.603L253.071 315.108V317.399H261.377V321.635H265.052L261.377 323.48V328.227H258.773V330.485H253.532V337.225H256.466L254.06 339.631V342.631L190.066 342.614Z" fill="#407BFF"/>
<path opacity="0.7" d="M190.066 342.614V337.225H186.456L190.066 335.116H187.363L190.972 332.759H194.4V330.04H190.428L194.4 328.458V322.574H190.428V318.734H186.456L190.428 317.399V314.663H187.577L189.901 312.34L191.928 310.312H253.532V313.081H257.603L253.071 315.108V317.399H261.377V321.635H265.052L261.377 323.48V328.227H258.773V330.485H253.532V337.225H256.466L254.06 339.631V342.631L190.066 342.614Z" fill="white"/>
<path opacity="0.1" d="M190.066 342.614V337.225H186.456L190.066 335.116H187.363L190.972 332.759H194.4V330.04H190.428L194.4 328.458V322.574H190.428V318.734H186.456L190.428 317.399V314.663H187.577L189.901 312.34L191.928 310.312H224.378V313.081H228.449L223.917 315.108V317.399H232.223V321.635H235.898L232.223 323.48V328.227H229.619V330.485H224.378V337.225H227.312L224.905 339.631V342.631L190.066 342.614Z" fill="black"/>
<path opacity="0.1" d="M253.071 317.399H223.917L253.071 316.344V317.399Z" fill="black"/>
<path opacity="0.1" d="M253.532 330.485H224.378L224.246 332.528L253.532 330.485Z" fill="black"/>
<path opacity="0.1" d="M258.773 328.227H229.619L258.773 329.248V328.227Z" fill="black"/>
<path opacity="0.1" d="M253.532 337.225H224.378L253.532 336.138V337.225Z" fill="black"/>
<path opacity="0.1" d="M254.059 339.631H224.905V340.736L254.059 339.631Z" fill="black"/>
<path opacity="0.1" d="M261.377 321.635H232.223L261.377 320.712V321.635Z" fill="black"/>
<path opacity="0.1" d="M253.532 313.081H224.378L253.532 312.06V313.081Z" fill="black"/>
<path opacity="0.1" d="M190.428 314.663H219.994L190.428 315.57V314.663Z" fill="black"/>
<path opacity="0.1" d="M223.916 317.399H190.428L220.785 318.388L223.916 317.399Z" fill="black"/>
<path opacity="0.1" d="M232.223 321.635L190.428 322.574V321.635H232.223Z" fill="black"/>
<path opacity="0.1" d="M232.223 323.48H211.556L232.223 324.502V323.48Z" fill="black"/>
<path opacity="0.1" d="M194.4 328.458L224.378 328.227L194.4 327.551V328.458Z" fill="black"/>
<path opacity="0.1" d="M194.4 330.04H224.905L194.4 331.061V330.04Z" fill="black"/>
<path opacity="0.1" d="M190.065 335.116H223.916V336.138L190.065 335.116Z" fill="black"/>
<path opacity="0.1" d="M190.065 337.225H214.605L190.065 337.901V337.225Z" fill="black"/>
<path d="M362.518 343.652L363.869 338.543H419.491L445.102 341.098L446.075 343.652H362.518Z" fill="#263238"/>
<path opacity="0.4" d="M419.491 338.543V343.652H362.518L363.869 338.543H419.491Z" fill="black"/>
<path d="M242.77 281.817L254.949 337.027C255.168 337.915 255.675 338.706 256.39 339.275C257.106 339.845 257.99 340.161 258.905 340.175H298.277C298.692 340.165 299.099 340.06 299.467 339.866C299.834 339.673 300.152 339.396 300.395 339.059C300.637 338.722 300.799 338.334 300.866 337.924C300.933 337.514 300.904 337.094 300.782 336.697L288.619 281.916C288.372 281.079 287.843 280.353 287.123 279.861C286.402 279.368 285.534 279.14 284.664 279.213H245.292C243.495 279.263 242.375 280.07 242.77 281.817Z" fill="#263238"/>
<path opacity="0.4" d="M245.028 281.817L257.191 337.027C257.409 337.915 257.916 338.706 258.632 339.275C259.347 339.845 260.231 340.161 261.146 340.175H298.277C298.691 340.162 299.096 340.054 299.462 339.86C299.827 339.665 300.144 339.389 300.386 339.053C300.628 338.717 300.789 338.33 300.858 337.921C300.927 337.513 300.901 337.094 300.782 336.697L288.619 281.916C288.372 281.079 287.843 280.353 287.122 279.861C286.402 279.368 285.533 279.14 284.664 279.213H247.615C245.753 279.263 244.632 280.07 245.028 281.817Z" fill="white"/>
<path d="M261.476 336.583V341.708C261.476 343.01 263.025 343.554 264.31 343.554H355.415C356.717 343.554 358.299 343.01 358.299 341.708V336.583H261.476Z" fill="#263238"/>
<path opacity="0.2" d="M358.299 336.583V341.708C358.299 343.01 356.75 343.554 355.464 343.554H264.376C263.058 343.554 261.476 343.01 261.476 341.708V336.583H358.299Z" fill="white"/>
<path opacity="0.4" d="M358.299 336.583V341.708C358.299 343.01 356.75 343.554 355.464 343.554H313.538C312.219 343.554 310.654 343.01 310.654 341.708V336.583H358.299Z" fill="black"/>
<path d="M298.574 332.528L287.515 282.806H247.237L258.196 332.528H298.574Z" fill="#407BFF"/>
<path d="M408.317 314.053C408.398 314.677 408.343 315.311 408.157 315.911C407.971 316.512 407.658 317.066 407.239 317.535C406.82 318.004 406.305 318.377 405.729 318.629C405.153 318.882 404.529 319.007 403.901 318.997H318.696C317.355 318.971 316.07 318.453 315.085 317.542C314.101 316.63 313.485 315.389 313.356 314.053L308.297 259.503C308.231 258.952 308.265 258.394 308.396 257.855C308.637 256.898 309.196 256.052 309.98 255.453C310.764 254.855 311.727 254.54 312.714 254.558H397.918C399.26 254.585 400.545 255.103 401.529 256.014C402.514 256.926 403.129 258.167 403.258 259.503L408.317 314.053Z" fill="#263238"/>
<path opacity="0.4" d="M403.587 318.948H318.696C317.355 318.922 316.07 318.404 315.085 317.492C314.101 316.581 313.485 315.339 313.356 314.004L308.297 259.453C308.231 258.902 308.265 258.344 308.396 257.805H393.304C394.643 257.838 395.924 258.359 396.907 259.269C397.89 260.179 398.507 261.417 398.643 262.749L403.703 317.3C403.764 317.852 403.725 318.41 403.587 318.948Z" fill="black"/>
<path d="M345.049 285.493H362.683L357.986 335.956L385.854 340.142V343.653H327.151V340.142L339.181 335.956L345.049 285.493Z" fill="#263238"/>
<path opacity="0.1" d="M362.683 285.493L349.63 342.862L339.181 342.548L345.048 285.493H362.683Z" fill="white"/>
<path d="M303.88 598.64H294.124L276.555 354.282H289.526L303.88 598.64Z" fill="#263238"/>
<path opacity="0.1" d="M303.897 598.64H294.124L277.429 366.412L276.555 354.662H289.526L290.218 366.412L303.897 598.64Z" fill="white"/>
<path opacity="0.2" d="M290.218 365.835H277.429L276.555 354.662H289.526L290.218 365.835Z" fill="black"/>
<path d="M423.414 598.64H413.641L412.059 354.282H425.012L423.414 598.64Z" fill="#263238"/>
<path opacity="0.1" d="M425.012 354.662L424.765 394.1L423.43 598.64H413.641L412.306 394.1L412.059 354.662H425.012Z" fill="white"/>
<path opacity="0.2" d="M425.012 354.662L424.765 394.528H412.306L412.059 354.662H425.012Z" fill="black"/>
<path d="M527.126 598.64H517.369L499.801 354.282H512.771L527.126 598.64Z" fill="#263238"/>
<path opacity="0.1" d="M527.142 598.64H517.369L500.658 366.412L499.801 354.662H512.771L513.463 366.412L527.142 598.64Z" fill="white"/>
<path opacity="0.2" d="M513.463 365.835H500.658L499.801 354.662H512.771L513.463 365.835Z" fill="black"/>
<path d="M192.125 598.64H182.369L196.723 354.282H209.677L192.125 598.64Z" fill="#263238"/>
<path opacity="0.1" d="M209.677 354.662L208.82 366.412L192.125 598.64H182.369L196.015 366.412L196.723 354.662H209.677Z" fill="white"/>
<path opacity="0.2" d="M196.724 354.662H209.677L208.82 365.835H196.015L196.724 354.662Z" fill="black"/>
<path d="M186.456 348.152H523.039V356.821C523.039 357.765 522.664 358.671 521.996 359.338C521.329 360.006 520.423 360.381 519.479 360.381H189.934C188.989 360.381 188.084 360.006 187.416 359.338C186.749 358.671 186.374 357.765 186.374 356.821V348.152H186.456Z" fill="#2AB2AF"/>
<path opacity="0.4" d="M186.456 348.152H523.039V356.821C523.039 357.765 522.664 358.671 521.996 359.338C521.329 360.006 520.423 360.381 519.479 360.381H189.934C188.989 360.381 188.084 360.006 187.416 359.338C186.749 358.671 186.374 357.765 186.374 356.821V348.152H186.456Z" fill="white"/>
<path opacity="0.2" d="M523.055 348.152H186.456V354.267H523.055V348.152Z" fill="black"/>
<path d="M529.103 349.751H180.391C179.479 349.746 178.605 349.382 177.96 348.737C177.315 348.092 176.951 347.218 176.947 346.306C176.947 345.393 177.31 344.517 177.956 343.871C178.602 343.225 179.478 342.862 180.391 342.862H529.103C530.017 342.862 530.893 343.225 531.539 343.871C532.185 344.517 532.548 345.393 532.548 346.306C532.544 347.218 532.179 348.092 531.534 348.737C530.889 349.382 530.016 349.746 529.103 349.751Z" fill="#2AB2AF"/>
<path opacity="0.4" d="M529.103 349.751H180.391C179.479 349.746 178.605 349.382 177.96 348.737C177.315 348.092 176.951 347.218 176.947 346.306C176.947 345.393 177.31 344.517 177.956 343.871C178.602 343.225 179.478 342.862 180.391 342.862H529.103C530.017 342.862 530.893 343.225 531.539 343.871C532.185 344.517 532.548 345.393 532.548 346.306C532.544 347.218 532.179 348.092 531.534 348.737C530.889 349.382 530.016 349.746 529.103 349.751Z" fill="white"/>
<path d="M444.756 327.304V328.457L440.784 330.039H444.756V332.759H441.328L437.702 335.115H440.422L436.812 337.225H440.422V342.614L504.416 342.631V339.631L506.822 337.225H503.872V330.484H509.129V328.227H511.733V327.304H444.756Z" fill="#407BFF"/>
<path opacity="0.9" d="M444.756 327.304V328.457L440.784 330.039H444.756V332.759H441.328L437.702 335.115H440.422L436.812 337.225H440.422V342.614L504.416 342.631V339.631L506.822 337.225H503.872V330.484H509.129V328.227H511.733V327.304H444.756Z" fill="white"/>
<path opacity="0.1" d="M444.756 327.304V328.457L440.784 330.039H444.756V332.759H441.328L437.702 335.115H440.422L436.812 337.225H440.422V342.614L475.261 342.631V339.631L477.668 337.225H474.718V330.484H479.975V328.227H482.579V327.304H444.756Z" fill="black"/>
<path opacity="0.1" d="M503.872 330.485H474.718L474.602 332.528L503.872 330.485Z" fill="black"/>
<path opacity="0.1" d="M509.129 328.227H479.975L509.129 329.248V328.227Z" fill="black"/>
<path opacity="0.1" d="M503.872 337.225H474.718L503.872 336.138V337.225Z" fill="black"/>
<path opacity="0.1" d="M504.416 339.631H475.262V340.736L504.416 339.631Z" fill="black"/>
<path opacity="0.1" d="M444.756 328.458L474.718 328.227L444.756 327.551V328.458Z" fill="black"/>
<path opacity="0.1" d="M444.756 330.04H475.261L444.756 331.061V330.04Z" fill="black"/>
<path opacity="0.1" d="M440.422 335.116H474.273V336.138L440.422 335.116Z" fill="black"/>
<path opacity="0.1" d="M440.422 337.225H464.945L440.422 337.901V337.225Z" fill="black"/>
</svg>
